<svg width="80" viewBox="0 0 92 73" fill="none" xmlns="http://www.w3.org/2000/svg">
<path d="M73 27.8594L71.875 29.8281C71.6875 30.2031 71.3594 30.4844 70.8906 30.6719C70.5156 30.7656 70.1406 30.7656 69.7656 30.6719C68.0781 30.0156 66.5781 29.125 65.2656 28C64.8906 27.7188 64.6562 27.3906 64.5625 27.0156C64.5625 26.5469 64.6562 26.125 64.8438 25.75L65.9688 23.7812C65.0312 22.6562 64.2812 21.3906 63.7188 19.9844H61.4688C61 19.9844 60.5781 19.8438 60.2031 19.5625C59.9219 19.2812 59.7812 18.9062 59.7812 18.4375C59.4062 16.75 59.3594 15.0156 59.6406 13.2344C59.7344 12.8594 59.9219 12.5312 60.2031 12.25C60.5781 11.9688 61 11.8281 61.4688 11.8281H63.7188C64.2812 10.4219 65.0312 9.10938 65.9688 7.89062L64.8438 5.92188C64.6562 5.54687 64.5625 5.17188 64.5625 4.79688C64.6562 4.32813 64.8906 3.95312 65.2656 3.67188C66.5781 2.64063 68.0781 1.79688 69.7656 1.14062C70.1406 0.953125 70.5156 0.953125 70.8906 1.14062C71.3594 1.23438 71.6875 1.46875 71.875 1.84375L73 3.95312C74.5 3.67188 76 3.67188 77.5 3.95312L78.625 1.84375C78.8125 1.46875 79.0938 1.23438 79.4688 1.14062C79.9375 0.953125 80.3594 0.953125 80.7344 1.14062C82.4219 1.70312 83.9219 2.54688 85.2344 3.67188C85.6094 3.95312 85.7969 4.32813 85.7969 4.79688C85.8906 5.17188 85.8438 5.54687 85.6562 5.92188L84.5312 7.89062C85.4688 9.10938 86.2188 10.4219 86.7812 11.8281H89.0312C89.5 11.8281 89.875 11.9688 90.1562 12.25C90.5312 12.5312 90.7188 12.8594 90.7188 13.2344C91.0938 15.0156 91.0938 16.75 90.7188 18.4375C90.7188 18.9062 90.5312 19.2812 90.1562 19.5625C89.875 19.8438 89.5 19.9844 89.0312 19.9844H86.7812C86.2188 21.3906 85.4688 22.6562 84.5312 23.7812L85.6562 25.75C85.8438 26.125 85.8906 26.5469 85.7969 27.0156C85.7969 27.3906 85.6094 27.7188 85.2344 28C83.9219 29.125 82.4219 30.0156 80.7344 30.6719C80.3594 30.7656 79.9375 30.7656 79.4688 30.6719C79.0938 30.4844 78.8125 30.2031 78.625 29.8281L77.5 27.8594C76 28.1406 74.5 28.1406 73 27.8594ZM71.5938 19.5625C73.2812 20.875 74.9688 21.2969 76.6562 20.8281C78.4375 20.2656 79.5625 19.1406 80.0312 17.4531C80.5938 15.6719 80.2188 13.8906 78.9062 12.1094C77.2188 10.7969 75.4844 10.4219 73.7031 10.9844C72.0156 11.5469 70.8906 12.7187 70.3281 14.5C69.8594 16.1875 70.2812 17.875 71.5938 19.5625ZM55.2812 41.2188L60.0625 43.6094C60.8125 43.9844 61.3281 44.5938 61.6094 45.4375C61.8906 46.1875 61.8438 46.9375 61.4688 47.6875C60.625 50.125 58.6562 53.2188 55.5625 56.9688C55 57.5312 54.2969 57.9062 53.4531 58.0938C52.7031 58.1875 52 58.0469 51.3438 57.6719L47.2656 55.2812C44.9219 57.25 42.3438 58.75 39.5312 59.7812V64.5625C39.5312 65.3125 39.25 66.0156 38.6875 66.6719C38.125 67.3281 37.4688 67.7031 36.7188 67.7969C33.1562 68.4531 29.5938 68.4531 26.0312 67.7969C25.1875 67.7031 24.4844 67.3281 23.9219 66.6719C23.4531 66.0156 23.2188 65.3125 23.2188 64.5625V59.7812C20.3125 58.75 17.7344 57.25 15.4844 55.2812L11.4062 57.6719C10.6562 58.0469 9.85938 58.1875 9.01562 58.0938C8.26562 57.9062 7.65625 57.5312 7.1875 56.9688C4.1875 53.3125 2.21875 50.2188 1.28125 47.6875C0.90625 46.9375 0.859375 46.1875 1.14062 45.4375C1.42188 44.5938 1.9375 43.9844 2.6875 43.6094L7.32812 41.2188C6.76562 38.2188 6.76562 35.2656 7.32812 32.3594L2.6875 29.9688C1.9375 29.5 1.42188 28.8906 1.14062 28.1406C0.859375 27.3906 0.90625 26.6406 1.28125 25.8906C2.21875 23.3594 4.1875 20.2656 7.1875 16.6094C7.65625 15.9531 8.26562 15.5781 9.01562 15.4844C9.85938 15.2969 10.6562 15.4375 11.4062 15.9062L15.4844 18.1562C17.8281 16.1875 20.4062 14.7344 23.2188 13.7969V9.01562C23.2188 8.17188 23.4531 7.46875 23.9219 6.90625C24.4844 6.25 25.1875 5.875 26.0312 5.78125C29.5938 5.125 33.1562 5.07812 36.7188 5.64062C37.4688 5.82812 38.125 6.25 38.6875 6.90625C39.25 7.46875 39.5312 8.17188 39.5312 9.01562V13.7969C42.3438 14.8281 44.9219 16.2813 47.2656 18.1562L51.3438 15.9062C52 15.4375 52.7031 15.2969 53.4531 15.4844C54.2969 15.5781 55 15.9531 55.5625 16.6094C58.5625 20.1719 60.5312 23.2656 61.4688 25.8906C61.75 26.6406 61.75 27.3906 61.4688 28.1406C61.2812 28.8906 60.8125 29.5 60.0625 29.9688L55.2812 32.3594C55.8438 35.2656 55.8438 38.2188 55.2812 41.2188ZM38.8281 44.1719C40.7969 41.6406 41.6875 38.9688 41.5 36.1562C41.3125 33.625 40.3281 31.4688 38.5469 29.6875C36.7656 27.8125 34.5625 26.7812 31.9375 26.5938C29.125 26.4063 26.4531 27.3437 23.9219 29.4062C21.9531 31.9375 21.0625 34.6094 21.25 37.4219C21.3438 39.9531 22.2812 42.1562 24.0625 44.0312C25.9375 45.8125 28.1406 46.75 30.6719 46.8438C33.4844 47.0312 36.2031 46.1406 38.8281 44.1719ZM73 69.9062L71.875 71.875C71.6875 72.25 71.3594 72.4844 70.8906 72.5781C70.5156 72.7656 70.1406 72.8125 69.7656 72.7188C68.0781 72.0625 66.5781 71.1719 65.2656 70.0469C64.8906 69.7656 64.6562 69.3906 64.5625 68.9219C64.5625 68.5469 64.6562 68.1719 64.8438 67.7969L65.9688 65.8281C65.0312 64.7031 64.2812 63.4375 63.7188 62.0312H61.4688C61 62.0312 60.5781 61.8906 60.2031 61.6094C59.9219 61.3281 59.7812 60.9531 59.7812 60.4844C59.4062 58.7969 59.3594 57.0625 59.6406 55.2812C59.7344 54.9062 59.9219 54.5781 60.2031 54.2969C60.5781 54.0156 61 53.875 61.4688 53.875H63.7188C64.2812 52.4688 65.0312 51.1562 65.9688 49.9375L64.8438 47.9688C64.6562 47.5938 64.5625 47.2188 64.5625 46.8438C64.6562 46.375 64.8906 46 65.2656 45.7188C66.5781 44.5938 68.0781 43.75 69.7656 43.1875C70.1406 43 70.5156 43 70.8906 43.1875C71.3594 43.2812 71.6875 43.5156 71.875 43.8906L73 45.8594C74.5 45.6719 76 45.7188 77.5 46L78.625 43.8906C78.8125 43.5156 79.0938 43.2812 79.4688 43.1875C79.9375 43 80.3594 43 80.7344 43.1875C82.4219 43.75 83.9219 44.5938 85.2344 45.7188C85.6094 46 85.7969 46.375 85.7969 46.8438C85.8906 47.2188 85.8438 47.5938 85.6562 47.9688L84.5312 49.9375C85.4688 51.1562 86.2188 52.4688 86.7812 53.875H89.0312C89.5 53.875 89.875 54.0156 90.1562 54.2969C90.5312 54.5781 90.7188 54.9062 90.7188 55.2812C91.0938 57.0625 91.0938 58.7969 90.7188 60.4844C90.7188 60.9531 90.5312 61.3281 90.1562 61.6094C89.875 61.8906 89.5 62.0312 89.0312 62.0312H86.7812C86.2188 63.4375 85.4688 64.7031 84.5312 65.8281L85.6562 67.7969C85.8438 68.1719 85.8906 68.5469 85.7969 68.9219C85.7969 69.3906 85.6094 69.7656 85.2344 70.0469C83.9219 71.1719 82.4219 72.0625 80.7344 72.7188C80.3594 72.8125 79.9375 72.7656 79.4688 72.5781C79.0938 72.4844 78.8125 72.25 78.625 71.875L77.5 69.9062C76 70.1875 74.5 70.1875 73 69.9062ZM71.5938 61.6094C73.2812 62.9219 74.9688 63.2969 76.6562 62.7344C78.4375 62.1719 79.5625 61.0469 80.0312 59.3594C80.5938 57.6719 80.2188 55.9375 78.9062 54.1562C77.2188 52.8438 75.4844 52.4688 73.7031 53.0312C72.0156 53.5938 70.8906 54.7656 70.3281 56.5469C69.8594 58.2344 70.2812 59.9219 71.5938 61.6094Z" fill="#D71921"/>
</svg>
