<svg width="90" viewBox="0 0 90 55" fill="none" xmlns="http://www.w3.org/2000/svg">
<path d="M61.1719 0H49.0781C47.8594 0 46.8281 0.375 45.9844 1.125L32.2031 13.9219C30.9844 14.9531 30.375 16.2656 30.375 17.8594C30.375 19.3594 30.8438 20.6719 31.7812 21.7969C32.7188 22.8281 33.9844 23.3906 35.5781 23.4844C37.1719 23.5781 38.5781 23.1562 39.7969 22.2188L51.0469 11.8125C51.5156 11.4375 52.0312 11.25 52.5938 11.25C53.25 11.25 53.7656 11.4844 54.1406 11.9531C54.6094 12.4219 54.7969 12.9844 54.7031 13.6406C54.7031 14.2031 54.4688 14.7188 54 15.1875L50.3438 18.5625L70.875 35.1562C71.25 35.4375 71.625 35.7656 72 36.1406V9L64.2656 1.26562C63.4219 0.421875 62.3906 0 61.1719 0ZM76.5 9V40.5C76.5 41.7188 76.9219 42.7969 77.7656 43.7344C78.7031 44.5781 79.7812 45 81 45H90V9H76.5ZM83.25 40.5C82.5938 40.5 82.0312 40.3125 81.5625 39.9375C81.1875 39.4688 81 38.9062 81 38.25C81 37.5938 81.1875 37.0781 81.5625 36.7031C82.0312 36.2344 82.5938 36 83.25 36C83.9062 36 84.4219 36.2344 84.7969 36.7031C85.2656 37.0781 85.5 37.5938 85.5 38.25C85.5 38.9062 85.2656 39.4688 84.7969 39.9375C84.4219 40.3125 83.9062 40.5 83.25 40.5ZM0 45H9C10.2188 45 11.25 44.5781 12.0938 43.7344C13.0312 42.7969 13.5 41.7188 13.5 40.5V9H0V45ZM6.75 36C7.40625 36 7.92188 36.2344 8.29688 36.7031C8.76562 37.0781 9 37.5938 9 38.25C9 38.9062 8.76562 39.4688 8.29688 39.9375C7.92188 40.3125 7.40625 40.5 6.75 40.5C6.09375 40.5 5.53125 40.3125 5.0625 39.9375C4.6875 39.4688 4.5 38.9062 4.5 38.25C4.5 37.5938 4.6875 37.0781 5.0625 36.7031C5.53125 36.2344 6.09375 36 6.75 36ZM68.0625 38.6719L47.1094 21.5156L42.8906 25.4531C40.7344 27.3281 38.25 28.2188 35.4375 28.125C32.7188 27.9375 30.4219 26.8594 28.5469 24.8906C26.6719 22.8281 25.7812 20.3906 25.875 17.5781C25.9688 14.7656 27.0469 12.4219 29.1094 10.5469L40.6406 0H28.8281C27.6094 0 26.5781 0.421875 25.7344 1.26562L18 9V40.5H20.5312L33.3281 52.0312C35.2031 53.625 37.3594 54.2812 39.7969 54C42.3281 53.7188 44.3906 52.5938 45.9844 50.625L48.5156 52.875C49.6406 53.8125 50.9062 54.1875 52.3125 54C53.8125 53.8125 54.9844 53.1562 55.8281 52.0312L60.3281 46.6875L61.0312 47.25C61.9688 48.0938 63.0469 48.4688 64.2656 48.375C65.5781 48.1875 66.6094 47.5781 67.3594 46.5469L68.625 45C69.4688 43.9688 69.7969 42.8438 69.6094 41.625C69.5156 40.4062 69 39.4219 68.0625 38.6719Z" fill="#D71921"/>
</svg>
