<svg width="80" viewBox="0 0 81 73" fill="none" xmlns="http://www.w3.org/2000/svg">
<path d="M72.9844 40.6406C71.5781 40.6406 70.1719 40.9219 68.7656 41.4844C67.9219 41.8594 66.8438 42.4688 65.5312 43.3125C64.5938 43.875 63.8906 44.2969 63.4219 44.5781C62.7656 44.8594 62.1094 45 61.4531 45C59.5781 45 58.3594 43.7344 57.7969 41.2031C57.4219 39.1406 57.4688 36.2812 57.9375 32.625C58.3125 30.0938 58.875 27.2812 59.625 24.1875L60.75 20.25L56.3906 21.7969C53.0156 23.0156 49.875 23.9062 46.9688 24.4688C42.9375 25.2187 39.75 25.3125 37.4062 24.75C34.5938 24.0937 33.1875 22.4531 33.1875 19.8281C33.1875 18.7031 33.4219 17.625 33.8906 16.5938C34.1719 16.0312 34.7344 15.1875 35.5781 14.0625C36.5156 12.9375 37.125 12 37.4062 11.25C37.9688 10.125 38.25 8.95313 38.25 7.73438C38.25 5.29688 37.4062 3.42187 35.7188 2.10938C34.125 0.703125 32.0625 0 29.5312 0C27 0 24.8438 0.65625 23.0625 1.96875C21.1875 3.46875 20.25 5.4375 20.25 7.875C20.25 9.375 20.5781 10.8281 21.2344 12.2344C21.5156 13.0781 22.125 14.1563 23.0625 15.4688C23.625 16.4063 24 17.0625 24.1875 17.4375C24.5625 18.1875 24.75 18.8438 24.75 19.4062C24.75 23.5312 20.625 25.4531 12.375 25.1719C8.25 24.9844 4.125 24.4219 0 23.4844V70.3125L3.9375 71.0156C7.03125 71.5781 9.89062 71.9062 12.5156 72C16.1719 72.0938 19.0781 71.7656 21.2344 71.0156C23.8594 70.0781 25.1719 68.4844 25.1719 66.2344C25.1719 65.6719 24.9375 65.0156 24.4688 64.2656C24.1875 63.8906 23.6719 63.2344 22.9219 62.2969C21.7969 60.9844 21.0469 59.9062 20.6719 59.0625C19.9219 57.75 19.5469 56.3438 19.5469 54.8438C19.5469 52.3125 20.3906 50.3906 22.0781 49.0781C23.7656 47.6719 25.875 46.9688 28.4062 46.9688C30.9375 46.9688 33 47.6719 34.5938 49.0781C36.2812 50.3906 37.125 52.2188 37.125 54.5625C37.125 55.875 36.8438 57.0938 36.2812 58.2188C36 58.875 35.3906 59.7656 34.4531 60.8906C33.6094 62.0156 33.0469 62.9062 32.7656 63.5625C32.2969 64.5938 32.0625 65.625 32.0625 66.6562C32.0625 69.5625 34.125 71.2031 38.25 71.5781C40.6875 71.8594 44.8594 71.625 50.7656 70.875C54.0469 70.5 56.2969 70.3125 57.5156 70.3125L56.8125 67.6406C56.4375 65.5781 56.2031 63.6562 56.1094 61.875C56.0156 59.4375 56.2969 57.5156 56.9531 56.1094C57.7969 54.3281 59.2031 53.4375 61.1719 53.4375C62.2031 53.4375 63.2344 53.6719 64.2656 54.1406C64.9219 54.4219 65.8125 55.0312 66.9375 55.9688C68.0625 56.8125 68.9531 57.375 69.6094 57.6562C70.7344 58.2188 71.9531 58.5 73.2656 58.5C75.7031 58.5 77.5781 57.7031 78.8906 56.1094C80.2969 54.4219 81 52.3125 81 49.7812C81 47.25 80.3438 45.1406 79.0312 43.4531C77.5312 41.5781 75.5156 40.6406 72.9844 40.6406Z" fill="#D71921"/>
</svg>
